<?xml version="1.0" encoding="UTF-8"?>
<svg xmlns="http://www.w3.org/2000/svg" viewBox="0 0 64 64">
  <defs>
    <linearGradient id="g" x1="0" x2="1" y1="0" y2="1">
      <stop offset="0" stop-color="#7a2b2b"/>
      <stop offset="1" stop-color="#b24f2f"/>
    </linearGradient>
  </defs>
  <rect width="64" height="64" rx="10" fill="url(#g)" />
  <!-- simple chef hat -->
  <g transform="translate(6,10) scale(0.8)">
    <path d="M18 6c3 0 5 2 5 4 0 .6-.2 1.2-.6 1.7C23.6 12.6 26 15 26 18c0 3-2 5-5 5H7c-3 0-5-2-5-5 0-3 2.4-5.4 3.6-6.3-.4-.5-.6-1.1-.6-1.7 0-2 2-4 5-4 1.4 0 2.7.6 3.6 1.6C16.3 6.6 17.1 6 18 6z" fill="#fff" />
    <rect x="6" y="18" width="14" height="6" rx="2" fill="#fff" />
  </g>
</svg>
